<mxfile host="app.diagrams.net" modified="2024-02-24T10:03:32.040Z" agent="Mozilla/5.0 (Windows NT 10.0; Win64; x64) AppleWebKit/537.36 (KHTML, like Gecko) Chrome/122.0.0.0 Safari/537.36" etag="GHp_h0k2CYCyQA2sjpEH" version="23.1.6" type="device">
  <diagram name="Page-1" id="aAx7J7RX4z-OUSzjIo2e">
    <mxGraphModel dx="1235" dy="671" grid="1" gridSize="10" guides="1" tooltips="1" connect="1" arrows="1" fold="1" page="1" pageScale="1" pageWidth="850" pageHeight="1100" math="0" shadow="0">
      <root>
        <mxCell id="0" />
        <mxCell id="1" parent="0" />
        <mxCell id="qCsJn4PpKWyExYU3MCr6-1" value="App Starts" style="ellipse;whiteSpace=wrap;html=1;fontSize=15;fontStyle=1" vertex="1" parent="1">
          <mxGeometry x="370" y="20" width="110" height="70" as="geometry" />
        </mxCell>
        <mxCell id="qCsJn4PpKWyExYU3MCr6-9" value="" style="edgeStyle=orthogonalEdgeStyle;rounded=0;orthogonalLoop=1;jettySize=auto;html=1;fontSize=15;fontStyle=1" edge="1" parent="1" source="qCsJn4PpKWyExYU3MCr6-7" target="qCsJn4PpKWyExYU3MCr6-8">
          <mxGeometry relative="1" as="geometry" />
        </mxCell>
        <mxCell id="qCsJn4PpKWyExYU3MCr6-17" value="" style="edgeStyle=orthogonalEdgeStyle;rounded=0;orthogonalLoop=1;jettySize=auto;html=1;fontSize=15;fontStyle=1" edge="1" parent="1" source="qCsJn4PpKWyExYU3MCr6-7" target="qCsJn4PpKWyExYU3MCr6-16">
          <mxGeometry relative="1" as="geometry" />
        </mxCell>
        <mxCell id="qCsJn4PpKWyExYU3MCr6-7" value="isAuthenicated" style="rhombus;whiteSpace=wrap;html=1;fontSize=15;fontStyle=1" vertex="1" parent="1">
          <mxGeometry x="353" y="220" width="145" height="120" as="geometry" />
        </mxCell>
        <mxCell id="qCsJn4PpKWyExYU3MCr6-11" value="" style="edgeStyle=orthogonalEdgeStyle;rounded=0;orthogonalLoop=1;jettySize=auto;html=1;fontSize=15;fontStyle=1" edge="1" parent="1" source="qCsJn4PpKWyExYU3MCr6-8" target="qCsJn4PpKWyExYU3MCr6-10">
          <mxGeometry relative="1" as="geometry" />
        </mxCell>
        <mxCell id="qCsJn4PpKWyExYU3MCr6-13" value="" style="edgeStyle=orthogonalEdgeStyle;rounded=0;orthogonalLoop=1;jettySize=auto;html=1;fontSize=15;fontStyle=1" edge="1" parent="1" source="qCsJn4PpKWyExYU3MCr6-8" target="qCsJn4PpKWyExYU3MCr6-12">
          <mxGeometry relative="1" as="geometry" />
        </mxCell>
        <mxCell id="qCsJn4PpKWyExYU3MCr6-8" value="isRegistered" style="rhombus;whiteSpace=wrap;html=1;fontSize=15;fontStyle=1" vertex="1" parent="1">
          <mxGeometry x="578" y="220" width="145" height="120" as="geometry" />
        </mxCell>
        <mxCell id="qCsJn4PpKWyExYU3MCr6-10" value="Signin" style="whiteSpace=wrap;html=1;fontSize=15;fontStyle=1" vertex="1" parent="1">
          <mxGeometry x="815.5" y="250" width="120" height="60" as="geometry" />
        </mxCell>
        <mxCell id="qCsJn4PpKWyExYU3MCr6-14" value="" style="edgeStyle=orthogonalEdgeStyle;rounded=0;orthogonalLoop=1;jettySize=auto;html=1;entryX=0.5;entryY=0;entryDx=0;entryDy=0;fontSize=15;fontStyle=1" edge="1" parent="1" source="qCsJn4PpKWyExYU3MCr6-12" target="qCsJn4PpKWyExYU3MCr6-7">
          <mxGeometry relative="1" as="geometry">
            <mxPoint x="425" y="210" as="targetPoint" />
          </mxGeometry>
        </mxCell>
        <mxCell id="qCsJn4PpKWyExYU3MCr6-12" value="Signup" style="whiteSpace=wrap;html=1;fontSize=15;fontStyle=1" vertex="1" parent="1">
          <mxGeometry x="590.25" y="140" width="120.5" height="60" as="geometry" />
        </mxCell>
        <mxCell id="qCsJn4PpKWyExYU3MCr6-16" value="OrganizationList" style="whiteSpace=wrap;html=1;fontSize=15;fontStyle=1" vertex="1" parent="1">
          <mxGeometry x="365.5" y="450" width="120" height="60" as="geometry" />
        </mxCell>
        <mxCell id="qCsJn4PpKWyExYU3MCr6-31" style="edgeStyle=orthogonalEdgeStyle;rounded=0;orthogonalLoop=1;jettySize=auto;html=1;exitX=0.5;exitY=1;exitDx=0;exitDy=0;entryX=0.5;entryY=0;entryDx=0;entryDy=0;fontSize=15;fontStyle=1" edge="1" parent="1" target="qCsJn4PpKWyExYU3MCr6-29">
          <mxGeometry relative="1" as="geometry">
            <mxPoint x="425.5" y="510" as="sourcePoint" />
          </mxGeometry>
        </mxCell>
        <mxCell id="qCsJn4PpKWyExYU3MCr6-24" value="" style="edgeStyle=orthogonalEdgeStyle;rounded=0;orthogonalLoop=1;jettySize=auto;html=1;fontSize=15;fontStyle=1" edge="1" parent="1">
          <mxGeometry relative="1" as="geometry">
            <mxPoint x="439.0588235294117" y="848" as="sourcePoint" />
            <mxPoint x="309.0588235294117" y="908" as="targetPoint" />
            <Array as="points">
              <mxPoint x="439" y="878" />
              <mxPoint x="309" y="878" />
            </Array>
          </mxGeometry>
        </mxCell>
        <mxCell id="qCsJn4PpKWyExYU3MCr6-26" value="" style="edgeStyle=orthogonalEdgeStyle;rounded=0;orthogonalLoop=1;jettySize=auto;html=1;fontSize=15;fontStyle=1" edge="1" parent="1" source="qCsJn4PpKWyExYU3MCr6-20" target="qCsJn4PpKWyExYU3MCr6-25">
          <mxGeometry relative="1" as="geometry">
            <Array as="points">
              <mxPoint x="438" y="864" />
              <mxPoint x="438" y="864" />
            </Array>
          </mxGeometry>
        </mxCell>
        <mxCell id="qCsJn4PpKWyExYU3MCr6-28" value="" style="edgeStyle=orthogonalEdgeStyle;rounded=0;orthogonalLoop=1;jettySize=auto;html=1;exitX=0.75;exitY=1;exitDx=0;exitDy=0;fontSize=15;fontStyle=1" edge="1" parent="1">
          <mxGeometry relative="1" as="geometry">
            <mxPoint x="439.5" y="848" as="sourcePoint" />
            <mxPoint x="564.0588235294117" y="908" as="targetPoint" />
            <Array as="points">
              <mxPoint x="439" y="878" />
              <mxPoint x="564" y="878" />
            </Array>
          </mxGeometry>
        </mxCell>
        <mxCell id="qCsJn4PpKWyExYU3MCr6-20" value="Campaign" style="whiteSpace=wrap;html=1;fontSize=15;fontStyle=1" vertex="1" parent="1">
          <mxGeometry x="365.5" y="788" width="120" height="60" as="geometry" />
        </mxCell>
        <mxCell id="qCsJn4PpKWyExYU3MCr6-22" value="Collections" style="whiteSpace=wrap;html=1;fontSize=15;fontStyle=1" vertex="1" parent="1">
          <mxGeometry x="250" y="908" width="120" height="60" as="geometry" />
        </mxCell>
        <mxCell id="qCsJn4PpKWyExYU3MCr6-25" value="Donation RecipientList" style="whiteSpace=wrap;html=1;fontSize=15;fontStyle=1" vertex="1" parent="1">
          <mxGeometry x="378" y="908" width="120" height="60" as="geometry" />
        </mxCell>
        <mxCell id="qCsJn4PpKWyExYU3MCr6-51" value="" style="edgeStyle=orthogonalEdgeStyle;rounded=0;orthogonalLoop=1;jettySize=auto;html=1;" edge="1" parent="1" source="qCsJn4PpKWyExYU3MCr6-27" target="qCsJn4PpKWyExYU3MCr6-50">
          <mxGeometry relative="1" as="geometry" />
        </mxCell>
        <mxCell id="qCsJn4PpKWyExYU3MCr6-27" value="Donate" style="whiteSpace=wrap;html=1;fontSize=15;fontStyle=1" vertex="1" parent="1">
          <mxGeometry x="503" y="908" width="120" height="60" as="geometry" />
        </mxCell>
        <mxCell id="qCsJn4PpKWyExYU3MCr6-45" value="" style="edgeStyle=orthogonalEdgeStyle;rounded=0;orthogonalLoop=1;jettySize=auto;html=1;" edge="1" parent="1" source="qCsJn4PpKWyExYU3MCr6-29" target="qCsJn4PpKWyExYU3MCr6-44">
          <mxGeometry relative="1" as="geometry" />
        </mxCell>
        <mxCell id="qCsJn4PpKWyExYU3MCr6-49" style="edgeStyle=orthogonalEdgeStyle;rounded=0;orthogonalLoop=1;jettySize=auto;html=1;exitX=1;exitY=0.75;exitDx=0;exitDy=0;entryX=0;entryY=0.5;entryDx=0;entryDy=0;" edge="1" parent="1" source="qCsJn4PpKWyExYU3MCr6-29" target="qCsJn4PpKWyExYU3MCr6-47">
          <mxGeometry relative="1" as="geometry">
            <Array as="points">
              <mxPoint x="485" y="590" />
            </Array>
          </mxGeometry>
        </mxCell>
        <mxCell id="qCsJn4PpKWyExYU3MCr6-29" value="Organization" style="whiteSpace=wrap;html=1;fontSize=15;fontStyle=1" vertex="1" parent="1">
          <mxGeometry x="365" y="560" width="120" height="60" as="geometry" />
        </mxCell>
        <mxCell id="qCsJn4PpKWyExYU3MCr6-35" value="" style="endArrow=classic;html=1;rounded=0;fontSize=15;fontStyle=1" edge="1" parent="1">
          <mxGeometry width="50" height="50" relative="1" as="geometry">
            <mxPoint x="885" y="250" as="sourcePoint" />
            <mxPoint x="425" y="120" as="targetPoint" />
            <Array as="points">
              <mxPoint x="885" y="120" />
            </Array>
          </mxGeometry>
        </mxCell>
        <mxCell id="qCsJn4PpKWyExYU3MCr6-37" value="" style="endArrow=none;html=1;rounded=0;entryX=0.5;entryY=1;entryDx=0;entryDy=0;fontSize=15;fontStyle=1" edge="1" parent="1" target="qCsJn4PpKWyExYU3MCr6-1">
          <mxGeometry width="50" height="50" relative="1" as="geometry">
            <mxPoint x="425" y="170" as="sourcePoint" />
            <mxPoint x="450" y="100" as="targetPoint" />
          </mxGeometry>
        </mxCell>
        <mxCell id="qCsJn4PpKWyExYU3MCr6-38" value="Yes" style="whiteSpace=wrap;html=1;strokeColor=none;fillColor=none;fontSize=15;fontStyle=1" vertex="1" parent="1">
          <mxGeometry x="700" y="230" width="120" height="60" as="geometry" />
        </mxCell>
        <mxCell id="qCsJn4PpKWyExYU3MCr6-39" value="No" style="text;html=1;align=center;verticalAlign=middle;resizable=0;points=[];autosize=1;strokeColor=none;fillColor=none;fontSize=15;fontStyle=1" vertex="1" parent="1">
          <mxGeometry x="660" y="208" width="40" height="30" as="geometry" />
        </mxCell>
        <mxCell id="qCsJn4PpKWyExYU3MCr6-40" value="No" style="text;html=1;align=center;verticalAlign=middle;resizable=0;points=[];autosize=1;strokeColor=none;fillColor=none;fontSize=15;fontStyle=1" vertex="1" parent="1">
          <mxGeometry x="503" y="250" width="40" height="30" as="geometry" />
        </mxCell>
        <mxCell id="qCsJn4PpKWyExYU3MCr6-41" value="&lt;b&gt;&lt;font style=&quot;font-size: 15px;&quot;&gt;Yes&lt;/font&gt;&lt;/b&gt;&lt;br style=&quot;font-size: 15px;&quot;&gt;" style="text;html=1;align=center;verticalAlign=middle;resizable=0;points=[];autosize=1;strokeColor=none;fillColor=none;" vertex="1" parent="1">
          <mxGeometry x="425" y="360" width="50" height="30" as="geometry" />
        </mxCell>
        <mxCell id="qCsJn4PpKWyExYU3MCr6-43" value="" style="endArrow=classic;html=1;rounded=0;" edge="1" parent="1">
          <mxGeometry width="50" height="50" relative="1" as="geometry">
            <mxPoint x="590" y="170" as="sourcePoint" />
            <mxPoint x="425" y="169.41" as="targetPoint" />
          </mxGeometry>
        </mxCell>
        <mxCell id="qCsJn4PpKWyExYU3MCr6-46" style="edgeStyle=orthogonalEdgeStyle;rounded=0;orthogonalLoop=1;jettySize=auto;html=1;exitX=0.75;exitY=1;exitDx=0;exitDy=0;entryX=0.5;entryY=0;entryDx=0;entryDy=0;" edge="1" parent="1" source="qCsJn4PpKWyExYU3MCr6-44" target="qCsJn4PpKWyExYU3MCr6-20">
          <mxGeometry relative="1" as="geometry">
            <Array as="points">
              <mxPoint x="426" y="730" />
            </Array>
          </mxGeometry>
        </mxCell>
        <mxCell id="qCsJn4PpKWyExYU3MCr6-44" value="CampaignList" style="whiteSpace=wrap;html=1;fontSize=15;fontStyle=1;" vertex="1" parent="1">
          <mxGeometry x="365" y="670" width="120" height="60" as="geometry" />
        </mxCell>
        <mxCell id="qCsJn4PpKWyExYU3MCr6-47" value="Review" style="whiteSpace=wrap;html=1;fontSize=15;fontStyle=1;" vertex="1" parent="1">
          <mxGeometry x="590.25" y="560" width="120" height="60" as="geometry" />
        </mxCell>
        <mxCell id="qCsJn4PpKWyExYU3MCr6-50" value="Payment Gateway" style="whiteSpace=wrap;html=1;fontSize=15;fontStyle=1;" vertex="1" parent="1">
          <mxGeometry x="680" y="908" width="120" height="60" as="geometry" />
        </mxCell>
      </root>
    </mxGraphModel>
  </diagram>
</mxfile>
